<?xml version="1.0" encoding="utf-8"?>
<svg version="1.1" id="Layer_1" xmlns="http://www.w3.org/2000/svg" xmlns:xlink="http://www.w3.org/1999/xlink" x="0px" y="0px"
	 viewBox="0 0 464 464" style="enable-background:new 0 0 464 464;" xml:space="preserve">
<style type="text/css">
	.st0{fill:#B97850;}
	.st1{fill:#A5694B;}
	.st2{fill:#734B46;}
	.st3{fill:#644141;}
	.st4{fill:#C978DC;}
	.st5{fill:#E5D044;}
</style>
<g>
	<g>
		<g>
			<path class="st0" d="M456,225.9c-12.4,4.6-26.1,6.1-40,6.1c-6.5,0-12.9-0.6-19.2-1.5c-0.6,0.7-1.1,1.4-1.9,2l-13.5,10.2
				c-4.4,3.3-10.4,3.4-15,0.3l-18.6-12.8c-5.2-3.6-6.6-8.5-3.8-14.2l0,0c0.7-1.3,1.2-4-1.5-5.7C304.6,186.7,280,144,280,96
				c0-27.5,8.3-53.1,22.4-74.5c2.9-4.5,0.6-10.5-4.6-12C273.5,2.3,247.6-1,220.7,0.3C103.2,5.9,7,101.2,0.4,218.6
				C-7.2,352.8,99.4,464,232,464c128.1,0,232-103.9,232-232C464,229,462,223.7,456,225.9z"/>
		</g>
	</g>
	<g>
		<g>
			<path class="st1" d="M96,232C96,120.3,174.9,27.1,280,5c-15.5-3.3-31.5-5-48-5C103.9,0,0,103.9,0,232c0,128.1,103.9,232,232,232
				c16.5,0,32.5-1.7,48-5C174.9,436.9,96,343.7,96,232z"/>
		</g>
	</g>
	<g>
		<g>
			<path class="st2" d="M172.6,232.8l-8,23.9c-2.5,7.6,0.9,15.8,8,19.4l25.3,12.6c6.2,3.1,13.6,1.9,18.5-3l15-15
				c5.2-5.2,6.2-13.2,2.4-19.5L221,229.6c-2.9-4.8-8.1-7.8-13.7-7.8h-19.4C180.9,221.9,174.8,226.3,172.6,232.8z"/>
		</g>
	</g>
	<g>
		<g>
			<path class="st2" d="M104,120.2l7.6,24c2.4,7.6,10,12.3,17.9,11l27.9-4.6c6.8-1.1,12.1-6.5,13.2-13.3l3.3-21
				c1.2-7.2-2.8-14.4-9.5-17.2l-23.1-9.9c-5.2-2.2-11.1-1.5-15.7,1.8l-15.7,11.4C104.3,106.5,101.9,113.6,104,120.2z"/>
		</g>
	</g>
	<g>
		<g>
			<path class="st2" d="M256.7,106.1l-20.2,15c-6.4,4.7-8.3,13.5-4.6,20.5l13.4,24.9c3.3,6.1,10.1,9.3,16.8,8.2l20.9-3.7
				c7.2-1.3,12.7-7.3,13.2-14.6l1.8-25c0.4-5.6-2.2-11-6.8-14.2l-15.9-11.2C269.7,101.9,262.2,102,256.7,106.1z"/>
		</g>
	</g>
	<g>
		<g>
			<path class="st2" d="M46,247.1l5.3,19.4c1.7,6.1,7.6,10.1,13.9,9.3l22.4-2.8c5.5-0.7,9.9-4.8,11-10.2l3.3-16.6
				c1.2-5.8-1.8-11.6-7.1-14.1l-18.1-8.6c-4.1-1.9-8.8-1.6-12.6,0.9l-12.9,8.6C46.7,236.2,44.6,241.8,46,247.1z"/>
		</g>
	</g>
	<g>
		<g>
			<path class="st2" d="M344.3,302l-24.5-5.7c-7.8-1.8-15.7,2.4-18.5,9.8l-10.2,26.4c-2.5,6.4-0.6,13.7,4.7,18.1l16.4,13.5
				c5.7,4.7,13.8,4.9,19.7,0.5l20.2-14.9c4.5-3.3,7-8.8,6.4-14.4l-1.8-19.3C356,309.2,351.1,303.5,344.3,302z"/>
		</g>
	</g>
	<g>
		<g>
			<path class="st2" d="M196.8,368.7l-13.3-15.1c-4.2-4.8-11.3-5.7-16.6-2.2l-18.9,12.4c-4.6,3-6.8,8.6-5.3,13.9l4.3,16.4
				c1.5,5.7,6.7,9.6,12.5,9.5l20-0.3c4.5-0.1,8.6-2.5,10.9-6.3l7.8-13.4C201,378.8,200.4,372.8,196.8,368.7z"/>
		</g>
	</g>
	<g>
		<g>
			<path class="st3" d="M129,144.2l-7.6-24c-2.1-6.6,0.3-13.7,5.9-17.8L143,91c0.3-0.2,0.7-0.4,1.1-0.6l-2.8-1.2
				c-5.2-2.2-11.1-1.5-15.7,1.8l-15.7,11.4c-5.6,4-7.9,11.2-5.9,17.8l7.6,24c2.4,7.6,10,12.3,17.9,11l8-1.3
				C133.5,152,130.3,148.6,129,144.2z"/>
		</g>
	</g>
	<g>
		<g>
			<path class="st3" d="M262.6,166.4l-13.4-24.9c-3.8-7-1.8-15.7,4.6-20.5l20.2-15c0.3-0.2,0.6-0.3,0.9-0.5
				c-5.6-3.7-12.9-3.5-18.2,0.5l-20.2,15c-6.4,4.7-8.3,13.5-4.6,20.5l13.4,24.9c3.3,6.1,10.1,9.3,16.8,8.2l7.7-1.3
				C266.8,171.8,264.3,169.5,262.6,166.4z"/>
		</g>
	</g>
	<g>
		<g>
			<path class="st3" d="M329.6,364.1l-16.4-13.5c-5.3-4.4-7.2-11.7-4.7-18.1l10.2-26.4c1.4-3.7,4.1-6.6,7.4-8.4l-6.3-1.4
				c-7.8-1.8-15.7,2.4-18.5,9.8l-10.2,26.4c-2.5,6.4-0.6,13.7,4.7,18.1l16.4,13.5c5.4,4.5,13.1,4.8,19,0.9
				C330.6,364.7,330,364.5,329.6,364.1z"/>
		</g>
	</g>
	<g>
		<g>
			<path class="st3" d="M190.1,276.1c-7.1-3.6-10.5-11.8-8-19.4l8-23.9c2.2-6.5,8.3-10.9,15.2-10.9h-17.4c-6.9,0-13,4.4-15.2,10.9
				l-8,23.9c-2.5,7.6,0.9,15.8,8,19.4l25.3,12.6c5.1,2.5,10.9,2,15.6-0.9L190.1,276.1z"/>
		</g>
	</g>
	<g>
		<g>
			<path class="st3" d="M68.7,266.6l-5.3-19.4c-1.4-5.3,0.7-11,5.3-14l11.7-7.8l-3.6-1.7c-4.1-1.9-8.8-1.6-12.6,0.9l-12.9,8.6
				c-4.6,3.1-6.7,8.7-5.3,14l5.3,19.4c1.7,6.1,7.6,10.1,13.9,9.3l10.4-1.3C72.3,273.1,69.7,270.3,68.7,266.6z"/>
		</g>
	</g>
	<g>
		<g>
			<path class="st3" d="M164.4,394.1l-4.3-16.4c-1.4-5.3,0.8-10.9,5.3-13.9l16.9-11.1c-4.3-3.8-10.5-4.5-15.4-1.3l-18.9,12.4
				c-4.6,3-6.8,8.6-5.3,13.9l4.3,16.4c1.5,5.7,6.7,9.6,12.5,9.5l16-0.2C170.3,402.9,165.8,399.3,164.4,394.1z"/>
		</g>
	</g>
	<g>
		<g>
			<path class="st4" d="M216,176L216,176c-4.4,0-8-3.6-8-8v-16c0-4.4,3.6-8,8-8l0,0c4.4,0,8,3.6,8,8v16C224,172.4,220.4,176,216,176
				z"/>
		</g>
	</g>
	<g>
		<g>
			<path class="st5" d="M147.3,211.3L147.3,211.3c-3.1,3.1-8.2,3.1-11.3,0L124.7,200c-3.1-3.1-3.1-8.2,0-11.3l0,0
				c3.1-3.1,8.2-3.1,11.3,0l11.3,11.3C150.4,203.1,150.4,208.2,147.3,211.3z"/>
		</g>
	</g>
	<g>
		<g>
			<path class="st4" d="M146.1,318.9L146.1,318.9c-4.1-1.6-6.1-6.3-4.5-10.4l5.9-14.9c1.6-4.1,6.3-6.1,10.4-4.5l0,0
				c4.1,1.6,6.1,6.3,4.5,10.4l-5.9,14.9C154.9,318.5,150.2,320.5,146.1,318.9z"/>
		</g>
	</g>
	<g>
		<g>
			<path class="st5" d="M240.5,342L240.5,342c-4.3,1-8.6-1.6-9.6-5.9l-3.7-15.6c-1-4.3,1.6-8.6,5.9-9.6l0,0c4.3-1,8.6,1.6,9.6,5.9
				l3.7,15.6C247.5,336.6,244.8,340.9,240.5,342z"/>
		</g>
	</g>
	<g>
		<g>
			<path class="st5" d="M264.6,411L264.6,411c-1.7-4.1,0.3-8.8,4.4-10.4l14.8-6c4.1-1.7,8.8,0.3,10.4,4.4l0,0
				c1.7,4.1-0.3,8.8-4.4,10.4l-14.8,6C270.9,417.1,266.3,415.1,264.6,411z"/>
		</g>
	</g>
	<g>
		<g>
			<path class="st5" d="M217.9,64.2L217.9,64.2c1-4.3,5.4-6.9,9.7-5.9l15.6,3.8c4.3,1,6.9,5.4,5.9,9.7l0,0c-1,4.3-5.4,6.9-9.7,5.9
				l-15.6-3.8C219.5,72.8,216.8,68.5,217.9,64.2z"/>
		</g>
	</g>
	<g>
		<g>
			<path class="st5" d="M71.9,350.6L71.9,350.6c-4.2-1.5-6.3-6.1-4.8-10.2l5.4-15.1c1.5-4.2,6.1-6.3,10.2-4.8l0,0
				c4.2,1.5,6.3,6.1,4.8,10.2l-5.4,15.1C80.7,349.9,76.1,352.1,71.9,350.6z"/>
		</g>
	</g>
	<g>
		<g>
			<path class="st4" d="M60.4,162.3L60.4,162.3c4.3-1,8.6,1.6,9.7,5.9l3.8,15.5c1,4.3-1.6,8.6-5.9,9.7l0,0c-4.3,1-8.6-1.6-9.7-5.9
				L54.6,172C53.5,167.7,56.2,163.4,60.4,162.3z"/>
		</g>
	</g>
	<g>
		<g>
			<path class="st4" d="M284.7,235.3L284.7,235.3c-3.1-3.1-3.1-8.2,0-11.3l11.3-11.3c3.1-3.1,8.2-3.1,11.3,0l0,0
				c3.1,3.1,3.1,8.2,0,11.3L296,235.3C292.9,238.4,287.8,238.4,284.7,235.3z"/>
		</g>
	</g>
	<g>
		<g>
			<path class="st5" d="M391,266.3L391,266.3c3.1-3.1,8.2-3.1,11.3,0l11.3,11.3c3.1,3.1,3.1,8.2,0,11.3l0,0c-3.1,3.1-8.2,3.1-11.3,0
				L391,277.7C387.9,274.5,387.9,269.5,391,266.3z"/>
		</g>
	</g>
	<g>
		<g>
			<path class="st4" d="M393.1,329.8L393.1,329.8c4.1,1.7,6,6.4,4.4,10.4l-6.1,14.8c-1.7,4.1-6.4,6-10.4,4.4l0,0
				c-4.1-1.7-6-6.4-4.4-10.4l6.1-14.8C384.4,330.1,389,328.1,393.1,329.8z"/>
		</g>
	</g>
	<g>
		<g>
			<path class="st0" d="M331.6,154.3l5.4,27.2c0.8,4.2,4.9,7,9.2,6.3l32.8-5.5c4.2-0.7,7.2-4.6,6.6-8.9l-5.4-43.5
				c-0.7-5.9-7.4-9-12.4-5.7L335,146.1C332.3,147.9,331,151.2,331.6,154.3z"/>
		</g>
	</g>
	<g>
		<g>
			<path class="st0" d="M359.6,100.6l57.5-25.6c3.9-1.7,5.7-6.2,4.2-10.1l-18.6-49.7c-1.5-4-5.9-6.1-10-4.8l-37.2,12.4
				c-2.2,0.7-4,2.4-4.9,4.6L337.2,61c-0.8,1.9-0.8,4,0,5.9l11.7,29.3C350.6,100.5,355.4,102.5,359.6,100.6z"/>
		</g>
	</g>
	<g>
		<g>
			<path class="st1" d="M308.5,70.6h8.5c5,0,8.8,4.6,7.8,9.6L321,98.9c-1.1,5.6-7.5,8.2-12.3,5.1l-9-6c-3-2-4.3-5.8-3.2-9.2
				l4.2-12.7C302,72.8,305,70.6,308.5,70.6z"/>
		</g>
	</g>
	<g>
		<g>
			<path class="st1" d="M376,200v1.4c0,3.8,2.7,7.1,6.4,7.8l24,4.8c5,1,9.6-2.8,9.6-7.8V200c0-4.4-3.6-8-8-8h-24
				C379.6,192,376,195.6,376,200z"/>
		</g>
	</g>
	<g>
		<g>
			<path class="st1" d="M364.3,91l-11.7-29.3c-0.8-1.9-0.8-4,0-5.9L366,22.1c0.8-1.9,2.3-3.3,4.2-4.2l-14.7,4.9
				c-2.2,0.7-4,2.4-4.9,4.6L337.2,61c-0.8,1.9-0.8,4,0,5.9l11.7,29.3c1.7,4.2,6.5,6.2,10.7,4.3l11-4.9
				C367.8,95.3,365.4,93.7,364.3,91z"/>
		</g>
	</g>
	<g>
		<g>
			<path class="st1" d="M350.9,179.9l-6.8-33.8c-0.5-2.4,0-4.8,1.2-6.8l-10.2,6.8c-2.7,1.8-4,5-3.4,8.2l5.4,27.2
				c0.8,4.2,4.9,7,9.2,6.3l9.1-1.5C353.1,184.9,351.4,182.7,350.9,179.9z"/>
		</g>
	</g>
</g>
</svg>
