<?xml version="1.0" encoding="utf-8"?>
<!-- Generator: Adobe Illustrator 25.1.0, SVG Export Plug-In . SVG Version: 6.00 Build 0)  -->
<svg version="1.1" id="Layer_1" focusable="false" xmlns="http://www.w3.org/2000/svg" xmlns:xlink="http://www.w3.org/1999/xlink"
	 x="0px" y="0px" viewBox="0 0 24 24" style="enable-background:new 0 0 24 24;" xml:space="preserve">
<style type="text/css">
	.st0{fill-rule:evenodd;clip-rule:evenodd;fill:#FFFFFF;stroke:#7F7F7F;stroke-miterlimit:10;}
</style>
<g>
	<path class="st0" d="M21.9,9.8h-2.2c-0.3,0-0.5-0.2-0.5-0.5V8.8c0-1-0.5-1.6-1.6-1.6h-1.6V6.6c0-1.1-0.5-1.6-1.6-1.6h-0.5
		c-0.3,0-0.5-0.2-0.5-0.5V2.2c0-1.1-1.1-1.1-1.1-1.1C5.8,1.1,0.8,6.3,1.2,12.6C1.4,18.2,6,22.7,11.5,23C17.8,23.3,23,18.3,23,12
		v-1.1C23,10.3,22.5,9.8,21.9,9.8z M6.6,11.3c-0.1,0.6-0.6,1.2-1.3,1.3c-1.2,0.2-2.1-0.8-1.9-1.9C3.5,10,4,9.5,4.7,9.3
		C5.8,9.1,6.8,10.1,6.6,11.3z M8.5,8.2C7.8,8.1,7.3,7.5,7.2,6.9C7,5.7,8,4.7,9.1,4.9c0.6,0.1,1.2,0.6,1.3,1.3
		C10.6,7.4,9.6,8.4,8.5,8.2z M12.6,18.9c-0.1,0.6-0.6,1.2-1.3,1.3c-1.2,0.2-2.1-0.8-1.9-1.9c0.1-0.6,0.6-1.2,1.3-1.3
		C11.8,16.8,12.8,17.8,12.6,18.9z M11.5,14.2c-0.9,0-1.6-0.7-1.6-1.6c0-0.9,0.7-1.6,1.6-1.6c0.9,0,1.6,0.7,1.6,1.6
		C13.2,13.5,12.4,14.2,11.5,14.2z M17,16.4c-0.9,0-1.6-0.7-1.6-1.6c0-0.9,0.7-1.6,1.6-1.6c0.9,0,1.6,0.7,1.6,1.6
		C18.6,15.7,17.9,16.4,17,16.4z"/>
</g>
</svg>
